<svg width="14" height="16" viewBox="0 0 14 16" fill="none" xmlns="http://www.w3.org/2000/svg">
<path d="M0.875029 0C0.642957 0 0.42039 0.0991593 0.25629 0.275664C0.0921903 0.452169 0 0.691561 0 0.941176C0 1.19079 0.0921903 1.43018 0.25629 1.60669C0.42039 1.78319 0.642957 1.88235 0.875029 1.88235H1.94256L2.20945 3.03247C2.2121 3.04571 2.21502 3.05889 2.2182 3.072L3.40649 8.18259L2.62509 9.02212C1.52255 10.208 2.30308 12.2353 3.86238 12.2353H11.3754C11.6075 12.2353 11.83 12.1361 11.9941 11.9596C12.1582 11.7831 12.2504 11.5437 12.2504 11.2941C12.2504 11.0445 12.1582 10.8051 11.9941 10.6286C11.83 10.4521 11.6075 10.3529 11.3754 10.3529H3.86238L4.73741 9.41177H10.5004C10.6628 9.41167 10.822 9.36293 10.9602 9.27101C11.0984 9.17909 11.21 9.04761 11.2826 8.89129L13.9077 3.24424C13.9744 3.10078 14.0058 2.94139 13.9991 2.78118C13.9924 2.62098 13.9478 2.46527 13.8694 2.32884C13.791 2.19241 13.6815 2.07978 13.5513 2.00164C13.4211 1.9235 13.2745 1.88244 13.1254 1.88235H3.74513L3.47387 0.712471C3.42646 0.508944 3.31719 0.32829 3.16341 0.199205C3.00963 0.0701197 2.82016 5.5157e-06 2.62509 0H0.875029ZM12.2504 14.5882C12.2504 14.9627 12.1121 15.3217 11.866 15.5865C11.6198 15.8513 11.286 16 10.9379 16C10.5898 16 10.2559 15.8513 10.0098 15.5865C9.76361 15.3217 9.62532 14.9627 9.62532 14.5882C9.62532 14.2138 9.76361 13.8547 10.0098 13.59C10.2559 13.3252 10.5898 13.1765 10.9379 13.1765C11.286 13.1765 11.6198 13.3252 11.866 13.59C12.1121 13.8547 12.2504 14.2138 12.2504 14.5882ZM3.93763 16C4.28574 16 4.61959 15.8513 4.86574 15.5865C5.11189 15.3217 5.25018 14.9627 5.25018 14.5882C5.25018 14.2138 5.11189 13.8547 4.86574 13.59C4.61959 13.3252 4.28574 13.1765 3.93763 13.1765C3.58952 13.1765 3.25567 13.3252 3.00952 13.59C2.76337 13.8547 2.62509 14.2138 2.62509 14.5882C2.62509 14.9627 2.76337 15.3217 3.00952 15.5865C3.25567 15.8513 3.58952 16 3.93763 16Z" fill="#F8FAFC"/>
</svg>
