<svg width="19" height="19" viewBox="0 0 19 19" fill="none" xmlns="http://www.w3.org/2000/svg">
<path fill-rule="evenodd" clip-rule="evenodd" d="M18.6523 8.66055C18.8749 8.88325 19 9.18524 19 9.50013C19 9.81501 18.8749 10.117 18.6523 10.3397L10.3397 18.6523C10.117 18.8749 9.81501 19 9.50013 19C9.18524 19 8.88325 18.8749 8.66055 18.6523L0.347943 10.3397C0.237506 10.2296 0.149916 10.0987 0.0902056 9.95463C0.0304948 9.81055 -0.000160482 9.65609 6.31778e-07 9.50013V3.56255C6.31778e-07 2.6177 0.375339 1.71155 1.04345 1.04345C1.71155 0.375339 2.6177 0 3.56255 0H9.50013C9.80413 0 10.1081 0.116377 10.3397 0.347942L18.6523 8.66055ZM3.56255 4.75006C3.8775 4.75006 4.17955 4.62495 4.40225 4.40225C4.62495 4.17955 4.75006 3.8775 4.75006 3.56255C4.75006 3.2476 4.62495 2.94555 4.40225 2.72285C4.17955 2.50014 3.8775 2.37503 3.56255 2.37503C3.2476 2.37503 2.94555 2.50014 2.72285 2.72285C2.50015 2.94555 2.37503 3.2476 2.37503 3.56255C2.37503 3.8775 2.50015 4.17955 2.72285 4.40225C2.94555 4.62495 3.2476 4.75006 3.56255 4.75006Z" fill="#2A9D8F"/>
</svg>
