<svg width="30" height="30" viewBox="0 0 30 30" fill="none" xmlns="http://www.w3.org/2000/svg">
<mask id="path-2-inside-1_91_370" fill="white">
<path d="M19.2373 8.4202L5.73615 16.2763L14.1934 19.3545L10.5175 26.53L24.0187 18.6739L15.5615 15.5957L19.2373 8.4202Z"/>
</mask>
<path d="M19.2373 8.4202L108.239 54.0136C128.479 14.5034 120.249 -33.6205 88.0288 -64.1589C55.809 -94.6973 7.31338 -100.339 -31.0563 -78.0122L19.2373 8.4202ZM5.73615 16.2763L-44.5574 -70.1561C-78.0947 -50.6413 -97.3158 -13.4874 -93.8684 25.1609C-90.421 63.8092 -64.9276 96.9746 -28.4659 110.246L5.73615 16.2763ZM14.1934 19.3545L103.195 64.9478C116.272 39.4195 117.758 9.50461 107.275 -17.1941C96.7918 -43.8928 75.3487 -64.8046 48.3954 -74.6148L14.1934 19.3545ZM10.5175 26.53L-78.4838 -19.0633C-98.724 20.4468 -90.4938 68.5707 -58.274 99.1091C-26.0542 129.648 22.4415 135.289 60.8111 112.962L10.5175 26.53ZM24.0187 18.6739L74.3123 105.106C107.85 85.5915 127.071 48.4376 123.623 9.78932C120.176 -28.859 94.6824 -62.0244 58.2207 -75.2954L24.0187 18.6739ZM15.5615 15.5957L-73.4399 -29.9976C-86.5175 -4.46928 -88.0035 25.4456 -77.5202 52.1443C-67.0369 78.843 -45.5938 99.7548 -18.6405 109.565L15.5615 15.5957ZM19.2373 8.4202L-31.0563 -78.0122L-44.5574 -70.1561L5.73615 16.2763L56.0297 102.709L69.5309 94.8526L19.2373 8.4202ZM5.73615 16.2763L-28.4659 110.246L-20.0086 113.324L14.1934 19.3545L48.3954 -74.6148L39.9382 -77.6929L5.73615 16.2763ZM14.1934 19.3545L-74.808 -26.2389L-78.4838 -19.0633L10.5175 26.53L99.5189 72.1234L103.195 64.9478L14.1934 19.3545ZM10.5175 26.53L60.8111 112.962L74.3123 105.106L24.0187 18.6739L-26.2749 -67.7585L-39.7761 -59.9024L10.5175 26.53ZM24.0187 18.6739L58.2207 -75.2954L49.7635 -78.3735L15.5615 15.5957L-18.6405 109.565L-10.1833 112.643L24.0187 18.6739ZM15.5615 15.5957L104.563 61.1891L108.239 54.0136L19.2373 8.4202L-69.7641 -37.1732L-73.4399 -29.9976L15.5615 15.5957Z" fill="#F8FAFC" mask="url(#path-2-inside-1_91_370)"/>
</svg>
