<svg width="26" height="30" viewBox="0 0 26 30" fill="none" xmlns="http://www.w3.org/2000/svg">
<path d="M1.62505 0C1.19406 0 0.780724 0.185924 0.475967 0.51687C0.171211 0.847817 0 1.29668 0 1.76471C0 2.23273 0.171211 2.68159 0.475967 3.01254C0.780724 3.34349 1.19406 3.52941 1.62505 3.52941H3.60762L4.10326 5.68588C4.10819 5.71071 4.1136 5.73542 4.11951 5.76L6.32634 15.3424L4.87516 16.9165C2.82759 19.14 4.27714 22.9412 7.17299 22.9412H21.1257C21.5567 22.9412 21.97 22.7553 22.2748 22.4243C22.5795 22.0934 22.7508 21.6445 22.7508 21.1765C22.7508 20.7084 22.5795 20.2596 22.2748 19.9286C21.97 19.5977 21.5567 19.4118 21.1257 19.4118H7.17299L8.79804 17.6471H19.5007C19.8024 17.6469 20.0981 17.5555 20.3547 17.3831C20.6112 17.2108 20.8186 16.9643 20.9534 16.6712L25.8286 6.08294C25.9524 5.81396 26.0108 5.5151 25.9984 5.21472C25.9859 4.91433 25.903 4.62238 25.7574 4.36658C25.6119 4.11077 25.4086 3.89959 25.1668 3.75308C24.925 3.60656 24.6527 3.52957 24.3758 3.52941H6.95523L6.45147 1.33588C6.36343 0.954271 6.1605 0.615545 5.87491 0.373509C5.58931 0.131474 5.23743 1.03419e-05 4.87516 0H1.62505ZM22.7508 27.3529C22.7508 28.055 22.4939 28.7283 22.0368 29.2247C21.5797 29.7211 20.9597 30 20.3132 30C19.6667 30 19.0467 29.7211 18.5895 29.2247C18.1324 28.7283 17.8756 28.055 17.8756 27.3529C17.8756 26.6509 18.1324 25.9776 18.5895 25.4812C19.0467 24.9848 19.6667 24.7059 20.3132 24.7059C20.9597 24.7059 21.5797 24.9848 22.0368 25.4812C22.4939 25.9776 22.7508 26.6509 22.7508 27.3529ZM7.31274 30C7.95923 30 8.57924 29.7211 9.03638 29.2247C9.49351 28.7283 9.75033 28.055 9.75033 27.3529C9.75033 26.6509 9.49351 25.9776 9.03638 25.4812C8.57924 24.9848 7.95923 24.7059 7.31274 24.7059C6.66626 24.7059 6.04625 24.9848 5.58911 25.4812C5.13198 25.9776 4.87516 26.6509 4.87516 27.3529C4.87516 28.055 5.13198 28.7283 5.58911 29.2247C6.04625 29.7211 6.66626 30 7.31274 30Z" fill="black"/>
</svg>
